<svg width="128" height="128" viewBox="0 0 128 128" fill="none" xmlns="http://www.w3.org/2000/svg">
<path d="M100.608 85H44.6084C44.1372 85 43.6812 84.8336 43.3207 84.5303C42.9601 84.2269 42.7183 83.806 42.6377 83.3418L31.3955 18.6562C31.3154 18.1922 31.0737 17.7714 30.7132 17.4683C30.3528 17.1652 29.8968 16.9993 29.4258 17H14.79C14.2596 17 13.7509 16.7893 13.3758 16.4142C13.0007 16.0391 12.79 15.5304 12.79 15C12.79 14.4696 13.0007 13.9609 13.3758 13.5858C13.7509 13.2107 14.2596 13 14.79 13H29.4258C30.8394 12.998 32.2082 13.4961 33.29 14.4061C34.3718 15.3162 35.0969 16.5795 35.3369 17.9727L46.291 81H100.608C101.139 81 101.648 81.2107 102.023 81.5858C102.398 81.9609 102.608 82.4696 102.608 83C102.608 83.5304 102.398 84.0391 102.023 84.4142C101.648 84.7893 101.139 85 100.608 85Z" fill="#7C8C8E"/>
<path d="M102.608 106C102.346 106 102.086 105.948 101.843 105.848C101.6 105.747 101.38 105.6 101.194 105.414C101.008 105.229 100.861 105.008 100.761 104.765C100.66 104.523 100.608 104.263 100.608 104C100.608 94.627 88.4961 87 73.6084 87C58.7207 87 46.6084 94.627 46.6084 104C46.6084 104.53 46.3977 105.039 46.0226 105.414C45.6475 105.789 45.1388 106 44.6084 106C44.078 106 43.5693 105.789 43.1942 105.414C42.8191 105.039 42.6084 104.53 42.6084 104C42.6084 92.42 56.5146 83 73.6084 83C90.7022 83 104.608 92.42 104.608 104C104.608 104.263 104.557 104.523 104.456 104.765C104.356 105.008 104.209 105.229 104.023 105.414C103.837 105.6 103.617 105.747 103.374 105.848C103.131 105.948 102.871 106 102.608 106V106Z" fill="#7C8C8E"/>
<path opacity="0.1" d="M100.608 85H44.6084C44.1372 85 43.6812 84.8336 43.3207 84.5303C42.9601 84.2269 42.7183 83.806 42.6377 83.3418L31.3955 18.6562C31.3154 18.1922 31.0737 17.7714 30.7132 17.4683C30.3528 17.1652 29.8968 16.9993 29.4258 17H14.79C14.2596 17 13.7509 16.7893 13.3758 16.4142C13.0007 16.0391 12.79 15.5304 12.79 15C12.79 14.4696 13.0007 13.9609 13.3758 13.5858C13.7509 13.2107 14.2596 13 14.79 13H29.4258C30.8394 12.998 32.2082 13.4961 33.29 14.4061C34.3718 15.3162 35.0969 16.5795 35.3369 17.9727L46.291 81H100.608C101.139 81 101.648 81.2107 102.023 81.5858C102.398 81.9609 102.608 82.4696 102.608 83C102.608 83.5304 102.398 84.0391 102.023 84.4142C101.648 84.7893 101.139 85 100.608 85Z" fill="black"/>
<path opacity="0.1" d="M102.608 106C102.346 106 102.086 105.948 101.843 105.848C101.6 105.747 101.38 105.6 101.194 105.414C101.008 105.229 100.861 105.008 100.761 104.765C100.66 104.523 100.608 104.263 100.608 104C100.608 94.627 88.4961 87 73.6084 87C58.7207 87 46.6084 94.627 46.6084 104C46.6084 104.53 46.3977 105.039 46.0226 105.414C45.6475 105.789 45.1388 106 44.6084 106C44.078 106 43.5693 105.789 43.1942 105.414C42.8191 105.039 42.6084 104.53 42.6084 104C42.6084 92.42 56.5146 83 73.6084 83C90.7022 83 104.608 92.42 104.608 104C104.608 104.263 104.557 104.523 104.456 104.765C104.356 105.008 104.209 105.229 104.023 105.414C103.837 105.6 103.617 105.747 103.374 105.848C103.131 105.948 102.871 106 102.608 106V106Z" fill="black"/>
<path d="M121.2 41.52L109.12 81.7801C108.844 82.711 108.274 83.5277 107.495 84.1081C106.717 84.6884 105.771 85.0013 104.8 85.0001H42.84C41.7339 84.9944 40.668 84.5847 39.8429 83.848C39.0178 83.1113 38.4904 82.0984 38.36 81.0001L29.22 32.34C29.0916 31.6499 29.1259 30.9393 29.3201 30.2647C29.5142 29.5901 29.8629 28.97 30.3385 28.4537C30.8141 27.9374 31.4034 27.539 32.0598 27.2901C32.7162 27.0412 33.4216 26.9488 34.12 27.02L115.34 35.52L117.36 35.7401C118.019 35.8105 118.654 36.0253 119.22 36.369C119.786 36.7127 120.27 37.177 120.637 37.7287C121.003 38.2805 121.244 38.9063 121.341 39.5616C121.438 40.2168 121.39 40.8855 121.2 41.52V41.52Z" fill="#F59E0B"/>
<path d="M28.6 12V17H11.6C10.2834 16.9856 9.02564 16.4524 8.09973 15.5163C7.17383 14.5802 6.65452 13.3166 6.65454 11.9999C6.65456 10.6833 7.1739 9.41973 8.09983 8.48362C9.02576 7.54752 10.2835 7.0144 11.6001 7H23.6C24.9259 7.00048 26.1974 7.52742 27.135 8.465C28.0726 9.40258 28.5995 10.6741 28.6 12V12Z" fill="#F59E0B"/>
<path d="M54.6001 111C54.1895 124.246 34.9931 124.186 34.6001 111C34.9913 97.8279 54.169 97.7373 54.6001 111ZM112.6 111C112.19 124.246 92.9932 124.186 92.6001 111C92.9913 97.8279 112.169 97.7373 112.6 111Z" fill="#7C8C8E"/>
<path opacity="0.1" d="M60.6001 41V63C60.5845 64.0506 60.1561 65.0529 59.4077 65.7903C58.6592 66.5277 57.6507 66.9411 56.6 66.9411C55.5493 66.941 54.5407 66.5276 53.7923 65.7902C53.0439 65.0527 52.6156 64.0504 52.6001 62.9999V41C52.6163 39.9499 53.0449 38.9483 53.7933 38.2114C54.5417 37.4745 55.5498 37.0615 56.6001 37.0615C57.6503 37.0615 58.6585 37.4745 59.4068 38.2114C60.1552 38.9483 60.5838 39.9499 60.6001 41V41ZM78.6001 45V63C78.5845 64.0506 78.1562 65.0529 77.4077 65.7903C76.6592 66.5277 75.6507 66.9411 74.6 66.9411C73.5493 66.941 72.5408 66.5276 71.7923 65.7902C71.0439 65.0527 70.6156 64.0504 70.6001 62.9999V45C70.6163 43.9499 71.0449 42.9483 71.7933 42.2114C72.5417 41.4745 73.5498 41.0615 74.6001 41.0615C75.6503 41.0615 76.6585 41.4745 77.4068 42.2114C78.1552 42.9483 78.5838 43.9499 78.6001 45ZM96.6001 49V63C96.5845 64.0506 96.1562 65.0529 95.4077 65.7903C94.6592 66.5277 93.6507 66.9411 92.6 66.9411C91.5493 66.941 90.5408 66.5276 89.7923 65.7902C89.0439 65.0527 88.6156 64.0504 88.6001 62.9999V49C88.6163 47.9499 89.0449 46.9483 89.7933 46.2114C90.5417 45.4745 91.5498 45.0615 92.6001 45.0615C93.6503 45.0615 94.6585 45.4745 95.4069 46.2114C96.1552 46.9483 96.5838 47.9499 96.6001 49Z" fill="black"/>
<path d="M60.6001 45V67C60.5845 68.0506 60.1561 69.0529 59.4077 69.7903C58.6592 70.5277 57.6507 70.9411 56.6 70.941C55.5493 70.941 54.5407 70.5276 53.7923 69.7902C53.0439 69.0527 52.6156 68.0504 52.6001 66.9998V45C52.6163 43.9499 53.0449 42.9483 53.7933 42.2114C54.5417 41.4745 55.5498 41.0615 56.6001 41.0615C57.6503 41.0615 58.6585 41.4745 59.4068 42.2114C60.1552 42.9483 60.5838 43.9499 60.6001 45ZM78.6001 49V67C78.5845 68.0506 78.1562 69.0529 77.4077 69.7903C76.6592 70.5277 75.6507 70.9411 74.6 70.941C73.5493 70.941 72.5408 70.5276 71.7923 69.7902C71.0439 69.0527 70.6156 68.0504 70.6001 66.9998V49C70.6163 47.9499 71.0449 46.9483 71.7933 46.2114C72.5417 45.4745 73.5498 45.0615 74.6001 45.0615C75.6503 45.0615 76.6585 45.4745 77.4068 46.2114C78.1552 46.9483 78.5838 47.9499 78.6001 49ZM96.6001 53V67C96.5845 68.0506 96.1562 69.0529 95.4077 69.7903C94.6592 70.5277 93.6507 70.9411 92.6 70.941C91.5493 70.941 90.5408 70.5276 89.7923 69.7902C89.0439 69.0527 88.6156 68.0504 88.6001 66.9998V53C88.6163 51.9499 89.0449 50.9483 89.7933 50.2114C90.5417 49.4745 91.5498 49.0615 92.6001 49.0615C93.6503 49.0615 94.6585 49.4745 95.4069 50.2114C96.1552 50.9483 96.5838 51.9499 96.6001 53Z" fill="#F2F2F2"/>
</svg>
